<svg width="192" height="35" viewBox="0 0 192 35" xmlns="http://www.w3.org/2000/svg" xmlns:xlink="http://www.w3.org/1999/xlink"><svg width="34" height="34" viewBox="0 0 34 34"><path d="M17.11.704C7.845.704.33 8.218.33 17.488c0 7.415 4.808 13.705 11.477 15.925.84.154 1.146-.364 1.146-.81 0-.397-.014-1.453-.023-2.853-4.668 1.013-5.653-2.25-5.653-2.25-.763-1.94-1.864-2.455-1.864-2.455-1.524-1.04.116-1.02.116-1.02 1.682.12 2.57 1.73 2.57 1.73 1.495 2.564 3.927 1.823 4.883 1.394.152-1.087.585-1.827 1.065-2.246-3.727-.423-7.646-1.864-7.646-8.295 0-1.833.655-3.33 1.728-4.504-.173-.425-.75-2.13.164-4.442 0 0 1.41-.45 4.616 1.72 1.338-.37 2.774-.558 4.2-.564 1.426.007 2.862.194 4.203.566 3.204-2.172 4.61-1.72 4.61-1.72.916 2.31.34 4.016.167 4.44 1.076 1.174 1.726 2.672 1.726 4.504 0 6.448-3.924 7.867-7.663 8.282.603.518 1.14 1.542 1.14 3.108 0 2.243-.02 4.053-.02 4.604 0 .45.3.97 1.153.807 6.664-2.222 11.468-8.51 11.468-15.92C33.896 8.217 26.38.703 17.11.703" fill="#000" fill-rule="evenodd"/></svg><svg width="34" height="34" viewBox="0 0 34 34" x="34"><path d="M17.11.704C7.845.704.33 8.218.33 17.488c0 7.415 4.808 13.705 11.477 15.925.84.154 1.146-.364 1.146-.81 0-.397-.014-1.453-.023-2.853-4.668 1.013-5.653-2.25-5.653-2.25-.763-1.94-1.864-2.455-1.864-2.455-1.524-1.04.116-1.02.116-1.02 1.682.12 2.57 1.73 2.57 1.73 1.495 2.564 3.927 1.823 4.883 1.394.152-1.087.585-1.827 1.065-2.246-3.727-.423-7.646-1.864-7.646-8.295 0-1.833.655-3.33 1.728-4.504-.173-.425-.75-2.13.164-4.442 0 0 1.41-.45 4.616 1.72 1.338-.37 2.774-.558 4.2-.564 1.426.007 2.862.194 4.203.566 3.204-2.172 4.61-1.72 4.61-1.72.916 2.31.34 4.016.167 4.44 1.076 1.174 1.726 2.672 1.726 4.504 0 6.448-3.924 7.867-7.663 8.282.603.518 1.14 1.542 1.14 3.108 0 2.243-.02 4.053-.02 4.604 0 .45.3.97 1.153.807 6.664-2.222 11.468-8.51 11.468-15.92C33.896 8.217 26.38.703 17.11.703" fill="#E4BC82" fill-rule="evenodd"/></svg><svg width="27" height="35" viewBox="0 0 27 35" x="68"><path d="M18.967 22.144L5.95 18.987l.632-2.603L19.6 19.54l-.633 2.604zm.873-3.114L7.913 12.935 9.13 10.55l11.93 6.095-1.22 2.385zm1.837-3.226L11.59 6.99l1.762-2.016 10.088 8.813-1.763 2.017zm2.775-2.836L16.93 1.885 19.147.38l7.522 11.084-2.22 1.504zM18.76 25.4l-13.376-.73.147-2.674 13.376.73-.146 2.675zm2.772 6.302V20.604h2.676l.002 13.777H0V20.594h2.68v11.11h18.85zM5.348 26.355h13.484v2.678H5.348v-2.678z" fill="#000" fill-rule="evenodd"/></svg><svg width="27" height="35" viewBox="0 0 27 35" x="95"><path d="M18.967 22.144L5.95 18.987l.632-2.603L19.6 19.54l-.633 2.604zm.873-3.114L7.913 12.935 9.13 10.55l11.93 6.095-1.22 2.385zm1.837-3.226L11.59 6.99l1.762-2.016 10.088 8.813-1.763 2.017zm2.775-2.836L16.93 1.885 19.147.38l7.522 11.084-2.22 1.504zM18.76 25.4l-13.376-.73.147-2.674 13.376.73-.146 2.675zm2.772 6.302V20.604h2.676l.002 13.777H0V20.594h2.68v11.11h18.85zM5.348 26.355h13.484v2.678H5.348v-2.678z" fill="#E4BC82" fill-rule="evenodd"/></svg><svg width="35" height="28" viewBox="0 0 35 28" x="122"><path d="M11.09 27.88c-3.94 0-7.607-1.154-10.693-3.133.545.065 1.1.098 1.663.098 3.268 0 6.276-1.115 8.663-2.986-3.052-.06-5.628-2.075-6.516-4.847.426.082.863.126 1.313.126.636 0 1.252-.087 1.838-.246-3.192-.64-5.596-3.46-5.596-6.84v-.088c.94.523 2.016.837 3.16.873C3.05 9.59 1.82 7.453 1.82 5.033c0-1.28.343-2.477.943-3.507 3.44 4.22 8.58 6.997 14.378 7.288-.117-.51-.18-1.043-.18-1.59 0-3.852 3.123-6.975 6.976-6.975 2.006 0 3.82.847 5.092 2.203 1.588-.313 3.08-.893 4.43-1.693-.522 1.63-1.628 2.996-3.068 3.86 1.41-.17 2.755-.544 4.007-1.1-.936 1.4-2.12 2.628-3.48 3.612.012.3.02.6.02.902 0 9.218-7.017 19.847-19.848 19.847z" fill="#000" fill-rule="evenodd"/></svg><svg width="35" height="28" viewBox="0 0 35 28" x="157"><path d="M11.09 27.88c-3.94 0-7.607-1.154-10.693-3.133.545.065 1.1.098 1.663.098 3.268 0 6.276-1.115 8.663-2.986-3.052-.06-5.628-2.075-6.516-4.847.426.082.863.126 1.313.126.636 0 1.252-.087 1.838-.246-3.192-.64-5.596-3.46-5.596-6.84v-.088c.94.523 2.016.837 3.16.873C3.05 9.59 1.82 7.453 1.82 5.033c0-1.28.343-2.477.943-3.507 3.44 4.22 8.58 6.997 14.378 7.288-.117-.51-.18-1.043-.18-1.59 0-3.852 3.123-6.975 6.976-6.975 2.006 0 3.82.847 5.092 2.203 1.588-.313 3.08-.893 4.43-1.693-.522 1.63-1.628 2.996-3.068 3.86 1.41-.17 2.755-.544 4.007-1.1-.936 1.4-2.12 2.628-3.48 3.612.012.3.02.6.02.902 0 9.218-7.017 19.847-19.848 19.847z" fill="#E4BC82" fill-rule="evenodd"/></svg></svg>