<?xml version="1.0" encoding="UTF-8" standalone="no"?>
<svg width="250px" height="81px" viewBox="0 0 250 81" version="1.1" xmlns="http://www.w3.org/2000/svg" xmlns:xlink="http://www.w3.org/1999/xlink">
    <!-- Generator: Sketch 3.7.2 (28276) - http://www.bohemiancoding.com/sketch -->
    <title>logo</title>
    <desc>Created with Sketch.</desc>
    <defs></defs>
    <g id="Page-1" stroke="none" stroke-width="1" fill="none" fill-rule="evenodd">
        <g id="Home" transform="translate(-387.000000, -328.000000)" fill="#FF0040">
            <g id="logo" transform="translate(387.000000, 328.000000)">
                <path d="M24.3831169,65.4364448 C16.0608766,65.3877435 9.91720779,63.1142045 5.95048701,58.6150162 C1.98295455,54.1158279 0,47.2221591 0,37.9331981 C0,28.5955357 2.07954545,21.6531656 6.24025974,17.1044643 C10.400974,12.5573864 16.7873377,10.2830357 25.3993506,10.2830357 C27.3823052,10.2830357 29.5105519,10.4169643 31.7857143,10.6823864 C34.0592532,10.9486201 36.2597403,11.3479708 38.3887987,11.8796266 L38.3887987,18.4112825 C35.7767857,17.8788149 33.4910714,17.5038149 31.5308442,17.2862825 C29.5722403,17.06875 27.7451299,16.9591721 26.0519481,16.9591721 C22.8100649,16.9591721 20.0527597,17.3479708 17.7792208,18.1206981 C15.5048701,18.8950487 13.6542208,20.1288149 12.2280844,21.8219968 C10.8003247,23.5159903 9.75974026,25.680763 9.10714286,28.3171266 C8.45373377,30.9551136 8.12743506,34.1588474 8.12743506,37.9331981 C8.12743506,41.6588474 8.44155844,44.8268669 9.07061688,47.4388799 C9.69886364,50.0517045 10.6785714,52.2051136 12.0097403,53.8982955 C13.3400974,55.5914773 15.0576299,56.8260552 17.1623377,57.5987825 C19.2670455,58.3731331 21.7946429,58.7603084 24.7459416,58.7603084 C25.6168831,58.7603084 26.6444805,58.7124188 27.8303571,58.6150162 C29.0154221,58.5184253 30.2362013,58.3974838 31.4951299,58.2521916 L31.4951299,37.4242695 L38.8246753,37.4242695 L38.8246753,63.4778409 C36.2118506,64.1068994 33.6590909,64.5914773 31.1680195,64.9291396 C28.6761364,65.2659903 26.4155844,65.4364448 24.3831169,65.4364448" id="Fill-1"></path>
                <path d="M55.8784091,65.4364448 C52.5399351,65.4364448 50.0366883,64.5289773 48.3670455,62.7148539 C46.6982143,60.9007305 45.8637987,58.2521916 45.8637987,54.7684253 L45.8637987,25.5224838 L53.6284091,25.5224838 L53.6284091,52.4469968 C53.6284091,54.8179383 54.0277597,56.4867695 54.8256494,57.4534903 C55.6243506,58.4218344 56.9904221,58.9056006 58.9262987,58.9056006 C60.7647727,58.9056006 62.6633117,58.5314123 64.623539,57.7806006 C66.5821429,57.0314123 68.6024351,56.1004058 70.6827922,54.9867695 L70.6827922,25.5224838 L78.4474026,25.5224838 L78.4474026,64.7107955 L71.9165584,64.7107955 L71.4084416,60.2116071 L71.1178571,60.2116071 C69.3767857,61.13125 67.8524351,61.9169643 66.5464286,62.5703734 C65.2396104,63.2237825 64.0058442,63.7676136 62.8451299,64.2034903 C61.6836039,64.6385552 60.5594156,64.9526786 59.4709416,65.1466721 C58.3816558,65.3390422 57.1844156,65.4364448 55.8784091,65.4364448" id="Fill-2"></path>
                <path d="M118.215097,59.7766234 C122.036526,59.7766234 124.855519,58.6402597 126.669643,56.3650974 C128.483766,54.0923701 129.390422,50.2944805 129.390422,44.9722403 C129.390422,39.8448052 128.652597,36.1913961 127.17776,34.0136364 C125.701299,31.8366883 123.318994,30.7482143 120.029221,30.7482143 C117.416396,30.7482143 115.214286,31.5103896 113.425325,33.0339286 C111.63474,34.5574675 110.74026,36.7961039 110.74026,39.7474026 L110.74026,58.9787338 C111.803571,59.2206169 112.99026,59.4137987 114.296266,59.5590909 C115.602273,59.7043831 116.909091,59.7766234 118.215097,59.7766234 L118.215097,59.7766234 Z M102.974838,25.5225649 L109.797078,25.5225649 L110.377435,29.9503247 L110.8125,29.9503247 C113.425325,26.5152597 117.223214,24.7969156 122.206169,24.7969156 C127.189123,24.7969156 130.938312,26.4064935 133.454545,29.6232143 C135.969968,32.8415584 137.228084,37.7636364 137.228084,44.3918831 C137.228084,50.9227273 135.595779,56.063961 132.330357,59.8131494 C129.064123,63.5631494 124.310877,65.436526 118.069805,65.436526 C116.810877,65.436526 115.553571,65.3756494 114.296266,65.2555195 C113.037338,65.1345779 111.853084,65.001461 110.74026,64.8561688 L110.74026,80.6767857 L102.974838,80.6767857 L102.974838,25.5225649 Z" id="Fill-3"></path>
                <path d="M154.57224,59.2681006 C156.12013,59.2681006 157.753247,58.8695617 159.470779,58.0716721 C161.1875,57.2721591 162.772727,56.3906656 164.224026,55.4215097 L164.224026,46.3500812 L157.837662,46.93125 C154.595779,47.2705357 152.32224,47.9474838 151.016234,48.9637175 C149.710227,49.9791396 149.056818,51.5757305 149.056818,53.7526786 C149.056818,57.4296266 150.895292,59.2681006 154.57224,59.2681006 M151.597403,65.0741071 C148.258929,65.0741071 145.693994,64.1431006 143.905032,62.280276 C142.114448,60.418263 141.219156,57.8168019 141.219156,54.4791396 C141.219156,50.7056006 142.392045,47.8273539 144.739448,45.842776 C147.085227,43.8590097 150.75,42.6747565 155.733766,42.2867695 L164.224026,41.6341721 L164.224026,39.2388799 C164.224026,37.642289 164.090097,36.3127435 163.825487,35.2478084 C163.558442,34.1836851 163.099026,33.3249188 162.446429,32.6715097 C161.793019,32.0181006 160.897727,31.5586851 159.761364,31.2924513 C158.624188,31.0278409 157.208604,30.8939123 155.515422,30.8939123 C154.015422,30.8939123 152.273539,31.0140422 150.290584,31.2559253 C148.306818,31.4986201 146.346591,31.8135552 144.412338,32.1999188 L143.831981,26.3939123 C148.42776,25.4758929 152.781656,25.0148539 156.894481,25.0148539 C162.071429,25.0148539 165.880682,26.043263 168.324675,28.1000812 C170.767045,30.1568994 171.989448,33.3857955 171.989448,37.7875812 L171.989448,64.7104708 L165.603084,64.7104708 L164.877435,59.8492695 L164.369318,59.8492695 C162.385552,61.4458604 160.328734,62.7153409 158.200487,63.6585227 C156.071429,64.6017045 153.870942,65.0741071 151.597403,65.0741071" id="Fill-4"></path>
                <path d="M194.775162,65.2919643 C187.082792,65.2919643 183.236201,61.5671266 183.236201,54.1158279 L183.236201,32.1994318 L175.834416,32.1994318 L175.834416,25.5224838 L183.672078,25.5224838 L184.760552,15.2903409 L190.928571,14.4924513 L190.928571,25.5224838 L201.451299,25.5224838 L201.451299,32.1994318 L191.001623,32.1994318 L191.001623,52.4469968 C191.001623,54.7684253 191.484578,56.4737825 192.452922,57.5630682 C193.420455,58.6515422 194.943994,59.1953734 197.025162,59.1953734 C197.701299,59.1953734 198.42776,59.1353084 199.20211,59.0143669 C199.974838,58.894237 200.773539,58.7124188 201.596591,58.469724 L201.596591,64.493263 C199.370942,65.0257305 197.097403,65.2919643 194.775162,65.2919643" id="Fill-5"></path>
                <path d="M211.756494,17.9756494 C210.159903,17.9756494 208.998377,17.6128247 208.272727,16.8871753 C207.547078,16.161526 207.184253,15.0251623 207.184253,13.476461 C207.184253,11.9285714 207.547078,10.7913961 208.272727,10.0649351 C208.998377,9.3400974 210.159903,8.97727273 211.756494,8.97727273 C214.851461,8.97727273 216.400974,10.4772727 216.400974,13.476461 C216.400974,16.476461 214.851461,17.9756494 211.756494,17.9756494" id="Fill-6"></path>
                <polygon id="Fill-7" points="207.909903 64.7111201 215.602273 64.7111201 215.602273 25.5228084 207.909903 25.5228084"></polygon>
                <path d="M240.348214,65.3646916 C234.203734,65.3646916 229.619318,63.707224 226.595779,60.3931006 C223.57224,57.079789 222.060065,51.9872565 222.060065,45.1171266 C222.060065,31.6195617 228.156656,24.8695617 240.348214,24.8695617 C241.799513,24.8695617 243.310877,24.954789 244.883929,25.1244318 C246.455357,25.2940747 247.943182,25.5481331 249.346591,25.8857955 L249.346591,32.2721591 C246.540584,31.6439123 243.806818,31.3289773 241.146104,31.3289773 C237.228084,31.3289773 234.372565,32.4296266 232.582792,34.6301136 C230.793019,36.8330357 229.897727,40.3273539 229.897727,45.1171266 C229.897727,49.9556006 230.768669,53.4629058 232.510552,55.6398539 C234.252435,57.8168019 237.082792,58.9060877 241.001623,58.9060877 C242.500812,58.9060877 243.892045,58.845211 245.173701,58.7242695 C246.455357,58.6041396 247.846591,58.3736201 249.346591,58.0351461 L249.346591,64.2762175 C248.185877,64.6146916 246.782468,64.8801136 245.137987,65.0741071 C243.492695,65.2664773 241.896104,65.3646916 240.348214,65.3646916" id="Fill-8"></path>
                <polygon id="Fill-9" points="95.5487013 20.3352273 109.775974 5.34577922 104.143669 0 89.0316558 15.9212662"></polygon>
                <polygon id="Fill-10" points="94.6306818 21.7823052 94.6306818 21.7571429 86.8652597 18.6581169 86.8652597 20.4974026"></polygon>
                <polygon id="Fill-11" points="86.8652597 21.3531656 86.8652597 64.7111201 94.6306818 64.7111201 94.6306818 22.6372565"></polygon>
                <polygon id="Fill-12" points="87.1777597 17.8744318 94.9431818 20.9734578 94.9602273 20.954789 88.4439935 16.5408279"></polygon>
            </g>
        </g>
    </g>
</svg>