<?xml version="1.0" encoding="UTF-8" standalone="no"?>
<svg width="175px" height="56px" viewBox="0 0 175 56" version="1.1" xmlns="http://www.w3.org/2000/svg" xmlns:xlink="http://www.w3.org/1999/xlink">
    <!-- Generator: Sketch 3.6.1 (26313) - http://www.bohemiancoding.com/sketch -->
    <title>logo</title>
    <desc>Created with Sketch.</desc>
    <defs></defs>
    <g id="Page-1" stroke="none" stroke-width="1" fill="none" fill-rule="evenodd">
        <path d="M16.8,45.5 C11.066638,45.4666665 6.833347,43.9000155 4.1,40.8 C1.366653,37.6999845 0,32.950032 0,26.55 C0,20.1166345 1.433319,15.333349 4.3,12.2 C7.166681,9.066651 11.566637,7.5 17.5,7.5 C18.8666735,7.5 20.3333255,7.59166575 21.9,7.775 C23.4666745,7.95833425 24.983326,8.2333315 26.45,8.6 L26.45,13.1 C24.649991,12.7333315 23.0750068,12.4750007 21.725,12.325 C20.3749932,12.1749992 19.1166725,12.1 17.95,12.1 C15.7166555,12.1 13.8166745,12.366664 12.25,12.9 C10.6833255,13.433336 9.40833825,14.2833275 8.425,15.45 C7.44166175,16.6166725 6.72500225,18.1083242 6.275,19.925 C5.82499775,21.7416757 5.6,23.949987 5.6,26.55 C5.6,29.1166795 5.8166645,31.299991 6.25,33.1 C6.6833355,34.900009 7.35832875,36.3833275 8.275,37.55 C9.19167125,38.7166725 10.3749927,39.566664 11.825,40.1 C13.2750072,40.633336 15.0166565,40.9 17.05,40.9 C17.650003,40.9 18.3583293,40.866667 19.175,40.8 C19.9916708,40.733333 20.833329,40.6500005 21.7,40.55 L21.7,26.2 L26.75,26.2 L26.75,44.15 C24.949991,44.5833355 23.1916753,44.9166655 21.475,45.15 C19.7583247,45.3833345 18.200007,45.5 16.8,45.5 L16.8,45.5 Z M39,45.5 C36.6999885,45.5 34.9750057,44.8750062 33.825,43.625 C32.6749942,42.3749937 32.1,40.550012 32.1,38.15 L32.1,18 L37.45,18 L37.45,36.55 C37.45,38.1833415 37.7249973,39.33333 38.275,40 C38.8250028,40.66667 39.76666,41 41.1,41 C42.366673,41 43.6749932,40.7416692 45.025,40.225 C46.3750068,39.7083307 47.7666595,39.0666705 49.2,38.3 L49.2,18 L54.55,18 L54.55,45 L50.05,45 L49.7,41.9 L49.5,41.9 C48.299994,42.5333365 47.2500045,43.0749977 46.35,43.525 C45.4499955,43.9750022 44.600004,44.3499985 43.8,44.65 C42.999996,44.9500015 42.2250037,45.166666 41.475,45.3 C40.7249963,45.433334 39.9000045,45.5 39,45.5 L39,45.5 Z M72.45,18 L77.15,18 L77.55,21.05 L77.85,21.05 C79.650009,18.6833215 82.2666495,17.5 85.7,17.5 C89.1333505,17.5 91.716658,18.6083222 93.45,20.825 C95.183342,23.0416777 96.05,26.4333105 96.05,31 C96.05,35.5000225 94.9250113,39.0416537 92.675,41.625 C90.4249888,44.2083462 87.1500215,45.5 82.85,45.5 C81.983329,45.5 81.116671,45.4583337 80.25,45.375 C79.383329,45.2916662 78.5666705,45.2000005 77.8,45.1 L77.8,56 L72.45,56 L72.45,18 Z M82.95,41.6 C85.5833465,41.6 87.5249938,40.8166745 88.775,39.25 C90.0250062,37.6833255 90.65,35.066685 90.65,31.4 C90.65,27.866649 90.1416718,25.3500075 89.125,23.85 C88.1083282,22.3499925 86.466678,21.6 84.2,21.6 C82.399991,21.6 80.8833395,22.1249947 79.65,23.175 C78.4166605,24.2250052 77.8,25.7666565 77.8,27.8 L77.8,41.05 C78.533337,41.2166675 79.3499955,41.3499995 80.25,41.45 C81.1500045,41.5500005 82.0499955,41.6 82.95,41.6 L82.95,41.6 Z M106.45,45.25 C104.149988,45.25 102.383339,44.6083397 101.15,43.325 C99.9166605,42.0416602 99.3,40.2500115 99.3,37.95 C99.3,35.349987 100.108325,33.3666735 101.725,32 C103.341675,30.6333265 105.866649,29.816668 109.3,29.55 L115.15,29.1 L115.15,27.45 C115.15,26.3499945 115.058334,25.433337 114.875,24.7 C114.691666,23.966663 114.375002,23.3750022 113.925,22.925 C113.474998,22.4749977 112.858337,22.1583342 112.075,21.975 C111.291663,21.7916657 110.316672,21.7 109.15,21.7 C108.116661,21.7 106.916673,21.7833325 105.55,21.95 C104.183326,22.1166675 102.83334,22.333332 101.5,22.6 L101.1,18.6 C104.266682,17.9666635 107.266652,17.65 110.1,17.65 C113.666684,17.65 116.291658,18.3583262 117.975,19.775 C119.658342,21.1916737 120.5,23.4166515 120.5,26.45 L120.5,45 L116.1,45 L115.6,41.65 L115.25,41.65 C113.883326,42.7500055 112.466674,43.6249967 111,44.275 C109.533326,44.9250032 108.016674,45.25 106.45,45.25 L106.45,45.25 Z M108.5,41.25 C109.566672,41.25 110.691661,40.9750027 111.875,40.425 C113.058339,39.8749972 114.149995,39.26667 115.15,38.6 L115.15,32.35 L110.75,32.75 C108.516656,32.9833345 106.950005,33.4499965 106.05,34.15 C105.149996,34.8500035 104.7,35.9499925 104.7,37.45 C104.7,39.983346 105.966654,41.25 108.5,41.25 L108.5,41.25 Z M136.7,45.4 C131.399973,45.4 128.75,42.833359 128.75,37.7 L128.75,22.6 L123.65,22.6 L123.65,18 L129.05,18 L129.8,10.95 L134.05,10.4 L134.05,18 L141.3,18 L141.3,22.6 L134.1,22.6 L134.1,36.55 C134.1,38.150008 134.43333,39.3249962 135.1,40.075 C135.76667,40.8250037 136.81666,41.2 138.25,41.2 C138.716669,41.2 139.216664,41.1583337 139.75,41.075 C140.283336,40.9916662 140.83333,40.8666675 141.4,40.7 L141.4,44.85 C139.866659,45.2166685 138.300008,45.4 136.7,45.4 L136.7,45.4 Z M147.9,12.8 C146.799995,12.8 146.000003,12.5500025 145.5,12.05 C144.999998,11.5499975 144.75,10.766672 144.75,9.7 C144.75,8.633328 144.999998,7.8500025 145.5,7.35 C146.000003,6.8499975 146.799995,6.6 147.9,6.6 C150.033344,6.6 151.1,7.633323 151.1,9.7 C151.1,11.766677 150.033344,12.8 147.9,12.8 L147.9,12.8 Z M145.25,18 L150.55,18 L150.55,45 L145.25,45 L145.25,18 Z M61.325,17.6110632 L61.325,15.9321984 L66.6883717,17.2194077 L66.6882818,17.4067414 L61.325,17.6110632 Z M61.325,18.6117886 L61.325,45.1 L66.675,45.1 L66.6878019,18.4074851 L61.325,18.6117886 Z M66.8213766,16.0154842 L66.6949526,16.1925903 L61.325,14.9038016 L61.325,14.5069399 L61.8227959,13.8095827 L62.2760345,13.1746454 L66.8213766,16.0154842 Z M67.4034654,15.2000421 L76.0022039,3.15415812 L71.6477957,0.0458418799 L62.8581233,12.3592032 L67.4034654,15.2000421 Z M168.1,45.45 C163.866646,45.45 160.708344,44.3083447 158.625,42.025 C156.541656,39.7416552 155.5,36.233357 155.5,31.5 C155.5,22.1999535 159.699958,17.55 168.1,17.55 C169.100005,17.55 170.141661,17.6083327 171.225,17.725 C172.308339,17.8416672 173.333328,18.0166655 174.3,18.25 L174.3,22.65 C172.366657,22.2166645 170.483342,22 168.65,22 C165.949987,22 163.98334,22.7583257 162.75,24.275 C161.51666,25.7916742 160.9,28.1999835 160.9,31.5 C160.9,34.83335 161.499994,37.2499925 162.7,38.75 C163.900006,40.2500075 165.849986,41 168.55,41 C169.583339,41 170.541662,40.9583337 171.425,40.875 C172.308338,40.7916662 173.266662,40.6333345 174.3,40.4 L174.3,44.7 C173.499996,44.9333345 172.533339,45.116666 171.4,45.25 C170.266661,45.383334 169.166672,45.45 168.1,45.45 Z" id="logo" fill="#FF0040"></path>
    </g>
</svg>