<?xml version="1.0" encoding="UTF-8" standalone="no"?>
<svg width="33px" height="32px" viewBox="0 0 33 32" version="1.1" xmlns="http://www.w3.org/2000/svg" xmlns:xlink="http://www.w3.org/1999/xlink">
    <!-- Generator: Sketch 3.7.1 (28215) - http://www.bohemiancoding.com/sketch -->
    <title>github-logo</title>
    <desc>Created with Sketch.</desc>
    <defs></defs>
    <g id="Page-1" stroke="none" stroke-width="1" fill="none" fill-rule="evenodd">
        <g id="Home" transform="translate(-496.000000, -479.000000)" fill="#000000">
            <path d="M512.288,479 C503.293,479 496,486.293 496,495.29 C496,502.487 500.667,508.592 507.14,510.747 C507.955,510.896 508.252,510.393 508.252,509.961 C508.252,509.575 508.238,508.55 508.23,507.191 C503.699,508.175 502.743,505.007 502.743,505.007 C502.002,503.126 500.934,502.624 500.934,502.624 C499.455,501.614 501.046,501.634 501.046,501.634 C502.681,501.749 503.541,503.313 503.541,503.313 C504.994,505.802 507.354,505.083 508.282,504.667 C508.43,503.614 508.85,502.896 509.316,502.489 C505.699,502.078 501.896,500.68 501.896,494.438 C501.896,492.66 502.531,491.206 503.573,490.067 C503.405,489.655 502.846,487.999 503.732,485.756 C503.732,485.756 505.1,485.318 508.212,487.426 C509.511,487.064 510.905,486.884 512.29,486.878 C513.673,486.884 515.067,487.064 516.368,487.426 C519.478,485.318 520.843,485.756 520.843,485.756 C521.732,487.999 521.173,489.655 521.005,490.067 C522.049,491.206 522.68,492.66 522.68,494.438 C522.68,500.696 518.871,502.073 515.242,502.476 C515.827,502.979 516.348,503.973 516.348,505.493 C516.348,507.67 516.328,509.427 516.328,509.961 C516.328,510.397 516.621,510.904 517.448,510.745 C523.916,508.586 528.579,502.485 528.579,495.29 C528.579,486.293 521.285,479 512.288,479" id="github-logo"></path>
        </g>
    </g>
</svg>