<?xml version="1.0" encoding="UTF-8" standalone="no"?><svg xmlns="http://www.w3.org/2000/svg" xmlns:xlink="http://www.w3.org/1999/xlink"><symbol viewBox="0 0 34 34" id="github"><g id="aPage-1" fill="none" fill-rule="evenodd"><g id="agithub" transform="translate(0 .25)" fill="#000"><g><path d="M17.11.454C7.845.454.33 7.968.33 17.238c0 7.415 4.808 13.705 11.477 15.925.84.154 1.146-.364 1.146-.81 0-.397-.014-1.453-.023-2.853-4.668 1.013-5.653-2.25-5.653-2.25-.763-1.94-1.864-2.455-1.864-2.455-1.524-1.04.116-1.02.116-1.02 1.683.12 2.57 1.73 2.57 1.73 1.496 2.564 3.928 1.823 4.884 1.394.152-1.086.585-1.826 1.065-2.245-3.727-.423-7.646-1.864-7.646-8.295 0-1.832.655-3.33 1.728-4.503-.173-.425-.75-2.13.164-4.442 0 0 1.41-.45 4.616 1.72 1.338-.37 2.774-.558 4.2-.564 1.426.007 2.862.194 4.203.566 3.204-2.172 4.61-1.72 4.61-1.72.916 2.31.34 4.016.167 4.44 1.076 1.174 1.726 2.672 1.726 4.504 0 6.448-3.924 7.867-7.663 8.282.603.518 1.14 1.542 1.14 3.108 0 2.243-.02 4.053-.02 4.604 0 .45.3.97 1.153.807 6.664-2.223 11.468-8.51 11.468-15.922C33.896 7.968 26.38.454 17.11.454"/></g></g></g></symbol><symbol viewBox="0 0 27 35" id="stackoverflow"><g id="bPage-1" fill="none" fill-rule="evenodd"><g id="bstackoverflow" transform="translate(-1 -.25)" fill="#000"><g><path d="M19.967 22.394L6.95 19.237l.632-2.603L20.6 19.79l-.633 2.604zm.873-3.114L8.913 13.185 10.13 10.8l11.93 6.095-1.22 2.385zm1.837-3.226L12.59 7.24l1.762-2.016 10.088 8.813-1.763 2.017zm2.775-2.836L17.93 2.135 20.147.63l7.522 11.084-2.218 1.504zM19.76 25.65l-13.376-.73.147-2.674 13.375.73-.146 2.675zm2.772 6.302V20.854h2.676l.002 13.777H1V20.843h2.68v11.11H22.53zM6.348 26.605h13.484v2.678H6.348v-2.678z"/></g></g></g></symbol><symbol viewBox="0 0 35 28" id="twitter"><g id="cPage-1" fill="none" fill-rule="evenodd"><g id="ctwitter" transform="translate(0 .25)" fill="#000"><g><path d="M11.09 27.63c-3.94 0-7.607-1.154-10.693-3.133.545.065 1.1.098 1.663.098 3.268 0 6.276-1.115 8.663-2.986-3.052-.058-5.628-2.074-6.516-4.846.426.082.863.126 1.313.126.636 0 1.252-.086 1.838-.245-3.192-.64-5.596-3.46-5.596-6.84v-.088c.94.523 2.016.837 3.16.873C3.05 9.34 1.82 7.204 1.82 4.784c0-1.28.343-2.477.943-3.507 3.44 4.22 8.58 6.997 14.378 7.288-.118-.51-.18-1.043-.18-1.59C16.96 3.123 20.083 0 23.936 0c2.006 0 3.82.847 5.092 2.203 1.588-.313 3.08-.893 4.43-1.693-.522 1.63-1.628 2.996-3.068 3.86 1.41-.17 2.755-.544 4.007-1.1-.936 1.4-2.12 2.628-3.48 3.612.012.3.02.6.02.902 0 9.218-7.017 19.847-19.848 19.847z"/></g></g></g></symbol></svg>