<?xml version="1.0" encoding="UTF-8" standalone="no"?>
<svg width="34px" height="34px" viewBox="0 0 34 34" version="1.1" xmlns="http://www.w3.org/2000/svg" xmlns:xlink="http://www.w3.org/1999/xlink" xmlns:sketch="http://www.bohemiancoding.com/sketch/ns">
    <!-- Generator: Sketch 3.3.1 (12002) - http://www.bohemiancoding.com/sketch -->
    <title>github</title>
    <desc>Created with Sketch.</desc>
    <defs></defs>
    <g id="Page-1" stroke="none" stroke-width="1" fill="none" fill-rule="evenodd" sketch:type="MSPage">
        <g id="github" sketch:type="MSLayerGroup" transform="translate(0.000000, 0.250000)" fill="#000000">
            <g id="Page-1" sketch:type="MSShapeGroup">
                <path d="M17.1112727,0.454363636 C7.84369697,0.454363636 0.32969697,7.96836364 0.32969697,17.238 C0.32969697,24.6530909 5.13812121,30.9430909 11.8072727,33.1633939 C12.6469697,33.3169091 12.9529697,32.7986667 12.9529697,32.3535758 C12.9529697,31.9558788 12.9385455,30.8998182 12.930303,29.4996364 C8.262,30.5134545 7.2770303,27.2494545 7.2770303,27.2494545 C6.51357576,25.3114545 5.41321212,24.7952727 5.41321212,24.7952727 C3.88939394,23.7536364 5.52860606,23.7742424 5.52860606,23.7742424 C7.21315152,23.8937576 8.09921212,25.5041212 8.09921212,25.5041212 C9.59624242,28.0685455 12.0277576,27.3277576 12.9838788,26.8991515 C13.1363636,25.8142424 13.5690909,25.0744848 14.0492121,24.6551515 C10.3226061,24.231697 6.40436364,22.7913333 6.40436364,16.3601818 C6.40436364,14.528303 7.05860606,13.0302424 8.13218182,11.8567273 C7.95909091,11.4322424 7.38315152,9.72606061 8.296,7.41509091 C8.296,7.41509091 9.70545455,6.96381818 12.9117576,9.13569697 C14.2501212,8.76375758 15.6863636,8.57727273 17.1133333,8.57109091 C18.5382424,8.57727273 19.9744848,8.76375758 21.3149091,9.13569697 C24.5191515,6.96381818 25.9255152,7.41509091 25.9255152,7.41509091 C26.8414545,9.72606061 26.2655152,11.4322424 26.0924242,11.8567273 C27.1680606,13.0302424 27.8181818,14.528303 27.8181818,16.3601818 C27.8181818,22.8078182 23.8937576,24.2265455 20.1547879,24.6417576 C20.7575152,25.16 21.294303,26.1841212 21.294303,27.7501818 C21.294303,29.9931515 21.273697,31.8033939 21.273697,32.3535758 C21.273697,32.8027879 21.5755758,33.3251515 22.4276364,33.1613333 C29.0916364,30.9369091 33.8959394,24.6510303 33.8959394,17.238 C33.8959394,7.96836364 26.3809091,0.454363636 17.1112727,0.454363636" id="github"></path>
            </g>
        </g>
    </g>
</svg>