<svg width="159" height="350" viewBox="0 0 159 350" xmlns="http://www.w3.org/2000/svg"><title>gulp-logo</title><g fill="none" fill-rule="evenodd"><path d="M78.79 276.318c-20.51 0-36.357-3.075-43.978-4.908-5.212-1.253-9.397-2.55-12.576-3.88L32.4 284.86l3.976 54.15c0 6.07 19.324 10.99 43.16 10.99 23.837 0 43.16-4.92 43.16-10.99l3.148-54.74 9.618-16.792c-3.193 1.35-7.415 2.664-12.692 3.932-7.62 1.833-23.47 4.908-43.98 4.908zm57-176.204c-15.052 2.098-35.03 3.254-56.254 3.254-21.223 0-41.202-1.156-56.255-3.254-7.455-1.04-13.355-2.265-17.533-3.642-.997-.33-2.686-.89-4.31-1.784l9.325 85.662c.433-1.476.916-2.95 1.45-4.417 1.096-3.01 2.362-5.95 3.8-8.823 1.438-2.873 3.003-5.59 4.696-8.147 1.692-2.557 3.494-4.91 5.403-7.063 1.91-2.15 3.87-4 5.88-5.55 2.01-1.55 4.04-2.76 6.09-3.633 2.05-.873 4.08-1.31 6.09-1.31 2.316 0 4.557.632 6.72 1.896 2.164 1.263 4.187 3.31 6.07 6.138.434.633.708 1.272.822 1.92.115.646.17 1.255.17 1.827 0 1.353-.323 2.422-.972 3.204-.65.784-1.42 1.174-2.31 1.174-.815 0-1.572-.43-2.272-1.285-.7-.86-1.483-2.085-2.348-3.68-.815-1.444-1.712-2.49-2.692-3.136-.98-.647-2.042-.97-3.188-.97-1.782 0-3.684.737-5.707 2.21-2.025 1.474-4.03 3.423-6.013 5.845-1.987 2.422-3.89 5.19-5.71 8.304-1.82 3.113-3.43 6.302-4.83 9.567-1.4 3.267-2.512 6.486-3.34 9.66-.827 3.174-1.24 6.024-1.24 8.55 0 .845.057 1.71.17 2.597.116.888.332 1.692.65 2.415.318.723.75 1.316 1.298 1.78.548.47 1.24.7 2.08.7.943 0 2.01-.315 3.21-.947 1.194-.63 2.436-1.46 3.72-2.48 1.286-1.024 2.578-2.182 3.876-3.477 1.3-1.293 2.508-2.6 3.627-3.926 1.12-1.323 2.114-2.595 2.98-3.813.865-1.22 1.513-2.28 1.947-3.183l3.55-10.607c.433-1.142 1-1.955 1.7-2.436.7-.48 1.42-.723 2.157-.723.355 0 .712.062 1.07.182.356.12.673.31.954.564.28.256.502.586.667.994.166.405.248.88.248 1.42 0 1.445-.127 2.798-.38 4.063-.256 1.264-.58 2.497-.975 3.7-.394 1.203-.834 2.415-1.318 3.633-.483 1.22-.954 2.49-1.412 3.815-.1.15-.286.624-.554 1.42-.267.8-.59 1.8-.973 3.003-.38 1.204-.795 2.55-1.24 4.04-.446 1.49-.903 3.008-1.374 4.558-.47 1.55-.923 3.07-1.355 4.56-.433 1.49-.822 2.835-1.164 4.04-.343 1.202-.63 2.21-.86 3.022-.23.813-.368 1.293-.42 1.446-.127.48-.33 1.014-.61 1.6-.28.587-.61 1.144-.993 1.67-.382.526-.8.964-1.26 1.31-.458.344-.93.518-1.413.518-.814 0-1.406-.27-1.774-.81-.37-.543-.554-1.536-.554-2.98v-.632c0-.21.012-.438.038-.676.024-.483.216-1.386.573-2.71.356-1.323.782-2.82 1.28-4.49.495-1.67 1.03-3.4 1.603-5.19.57-1.79 1.087-3.392 1.546-4.807-1.35 1.507-2.813 3.003-4.39 4.493-1.58 1.488-3.196 2.828-4.85 4.015-1.655 1.19-3.323 2.16-5.002 2.912-1.68.752-3.296 1.13-4.85 1.13-1.78 0-3.314-.393-4.6-1.175-.232-.143-.45-.3-.67-.46l5.19 54.303c1.35 3.38 26.786 11.683 60.32 11.683 33.552 0 58.997-8.31 60.324-11.687l7.455-64.56c-.618.563-1.22 1.116-1.793 1.65-2.14 1.985-4.156 3.693-6.053 5.122-1.895 1.43-3.748 2.536-5.555 3.317-1.81.783-3.743 1.174-5.805 1.174-1.934 0-3.43-.422-4.486-1.264-1.057-.84-1.586-2-1.586-3.475v-.338c0-.106.013-.235.04-.385.1-.902.496-1.942 1.183-3.114.687-1.173 1.514-2.39 2.48-3.654.968-1.264 2-2.543 3.093-3.837 1.095-1.294 2.107-2.52 3.037-3.68.928-1.156 1.698-2.217 2.31-3.18.61-.964.916-1.745.916-2.347 0-.36-.128-.647-.38-.86-.257-.208-.677-.315-1.262-.315-1.017 0-2.067.264-3.148.79-1.083.526-2.153 1.235-3.21 2.122-1.055.888-2.086 1.904-3.092 3.046-1.004 1.144-1.946 2.333-2.824 3.565-.88 1.236-1.68 2.477-2.405 3.726-.725 1.248-1.342 2.4-1.852 3.45-.153.333-.37.8-.65 1.4-.28.602-.585 1.28-.915 2.032-.332.752-.682 1.528-1.05 2.323-.37.8-.707 1.552-1.012 2.26l-.818 1.894c-.244.556-.416.94-.517 1.15-.128.27-.337.782-.63 1.535-.293.75-.63 1.632-1.01 2.64-.383 1.006-.784 2.067-1.205 3.182-.418 1.11-.814 2.166-1.183 3.16-.37.99-.694 1.864-.973 2.616-.28.75-.46 1.264-.536 1.535-.254.782-.554 1.518-.896 2.212-.344.69-.738 1.3-1.184 1.828-.445.526-.954.947-1.527 1.262-.573.318-1.215.474-1.926.474-.918 0-1.674-.22-2.274-.655-.597-.436-.896-1.272-.896-2.505 0-.602.076-1.218.23-1.85.15-.63.343-1.257.572-1.873.23-.618.465-1.218.707-1.805.24-.588.464-1.15.667-1.693 1.375-3.01 2.775-6.025 4.2-9.05 1.425-3.023 2.793-6.016 4.105-8.98.272-.62.523-1.224.79-1.84l-.237.237c-1.655 1.595-3.302 3-4.944 4.22-1.643 1.218-3.272 2.188-4.886 2.91-1.618.722-3.19 1.084-4.718 1.084-1.043 0-1.914-.164-2.614-.495-.7-.332-1.26-.784-1.68-1.354-.42-.57-.72-1.248-.898-2.03-.06-.268-.098-.547-.137-.825-.446.347-.896.685-1.35 1.006-1.58 1.113-3.13 2.01-4.66 2.685-1.525.677-2.9 1.016-4.12 1.016-1.224 0-2.216-.406-2.98-1.218-.764-.812-1.145-2.196-1.145-4.15 0-1.387.204-2.996.61-4.83-.662 1.173-1.49 2.362-2.48 3.564-.995 1.204-2.127 2.302-3.4 3.296-1.273.992-2.698 1.797-4.275 2.414-1.58.616-3.298.925-5.155.925-.84 0-1.648-.105-2.425-.315-.777-.21-1.457-.572-2.042-1.083-.586-.51-1.056-1.196-1.413-2.053-.356-.858-.534-1.935-.534-3.228 0-.03.052-.49.153-1.378.102-.887.427-2.287.974-4.197.547-1.91 1.394-4.385 2.538-7.424 1.147-3.04 2.763-6.725 4.85-11.056.534-1.144 1.152-1.964 1.85-2.46.702-.497 1.458-.745 2.272-.745.357 0 .726.053 1.108.157.383.105.738.27 1.07.496.33.226.598.512.802.858.202.345.306.743.306 1.195 0 .3-.04.587-.116.856-.128.514-.4 1.18-.82 2.008-.42.83-.91 1.777-1.47 2.845-.56 1.067-1.152 2.218-1.776 3.452-.623 1.233-1.202 2.51-1.736 3.836-.534 1.325-.993 2.67-1.375 4.04s-.6 2.7-.65 3.994c0 .54.127 1.037.382 1.49.255.45.675.675 1.26.675 1.654 0 3.232-.542 4.735-1.624 1.5-1.084 2.888-2.43 4.16-4.04 1.274-1.61 2.425-3.34 3.457-5.19 1.03-1.85 1.89-3.542 2.576-5.077.485-1.022.91-2.122 1.28-3.295.368-1.173.77-2.255 1.203-3.248.433-.994.928-1.82 1.49-2.483.557-.662 1.26-.994 2.098-.994.918 0 1.642.347 2.178 1.038.535.693.8 1.52.8 2.482 0 .54-.17 1.288-.514 2.235-.345.95-.777 2.032-1.3 3.25-.52 1.22-1.087 2.52-1.697 3.904-.61 1.385-1.178 2.79-1.698 4.22-.525 1.43-.956 2.83-1.3 4.198-.345 1.368-.515 2.64-.515 3.813 0 1.083.56 1.625 1.68 1.625.788 0 1.768-.27 2.94-.813 1.17-.542 2.398-1.3 3.683-2.28.32-.244.644-.498.965-.766.36-1.476.78-2.84 1.27-4.083.89-2.348 1.794-4.678 2.71-6.995.916-2.317 1.756-4.44 2.52-6.365l11.57-29.11c.457-1.173 1.074-2 1.85-2.482.777-.48 1.56-.722 2.35-.722.787 0 1.505.256 2.155.767.65.513.975 1.34.975 2.483 0 .54-.11 1.113-.325 1.715-.217.602-.49 1.248-.822 1.94-.635 1.415-1.392 3.145-2.27 5.19-.88 2.047-1.822 4.274-2.827 6.68-1.006 2.407-2.038 4.912-3.093 7.514-1.056 2.603-2.087 5.138-3.093 7.605-1.004 2.468-1.947 4.806-2.826 7.018-.878 2.212-1.634 4.13-2.27 5.754-.28.69-.555 1.497-.82 2.415-.27.917-.402 1.737-.402 2.46 0 .45.077.81.23 1.082.152.27.445.407.877.407.534 0 1.202-.188 2.004-.565.802-.377 1.667-.874 2.596-1.49.93-.617 1.897-1.324 2.9-2.122 1.008-.797 2.006-1.624 3-2.482.993-.858 1.94-1.715 2.843-2.573.903-.857 1.713-1.647 2.426-2.37.167-.172.367-.295.587-.386.43-1.282.82-2.537 1.168-3.764.203-.543.484-1.31.84-2.302.355-.993.763-1.97 1.22-2.934.46-.962.976-1.798 1.547-2.504.573-.706 1.19-1.06 1.852-1.06 1.02 0 1.757.233 2.215.698.458.468.687 1.152.687 2.055 0 .18-.026.466-.077.857-.052.39-.114.806-.19 1.242-.076.435-.16.85-.25 1.24-.09.392-.17.678-.247.858.94-1.024 1.96-2.038 3.054-3.046 1.095-1.008 2.227-1.92 3.398-2.73 1.172-.814 2.367-1.474 3.59-1.988 1.22-.51 2.444-.766 3.665-.766.84 0 1.673.12 2.5.36.827.242 1.566.595 2.214 1.06.65.47 1.18 1.055 1.585 1.762.407.706.61 1.526.61 2.46 0 1.234-.31 2.55-.935 3.95-.623 1.398-1.405 2.804-2.347 4.217-.942 1.417-1.96 2.792-3.054 4.13-1.095 1.34-2.12 2.558-3.074 3.656-.955 1.1-1.757 2.03-2.406 2.8-.647.767-.987 1.286-1.012 1.557 0 .36.116.654.345.88.228.225.61.34 1.143.34.433 0 1.07-.242 1.91-.724.84-.482 2.017-1.317 3.53-2.505 1.515-1.19 3.438-2.784 5.767-4.785 1.597-1.37 3.467-3.006 5.574-4.866l10.098-93.33c-1.627.897-3.318 1.46-4.316 1.788-4.178 1.377-10.077 2.602-17.535 3.642zM79.477 77.97C35.82 77.97.43 82.842.43 88.85c0 6.01 35.39 10.882 79.046 10.882 43.656 0 79.046-4.87 79.046-10.88 0-6.01-35.39-10.882-79.046-10.882zm31.562 14.06c0 1.41-4.205 2.554-9.394 2.554-5.188 0-9.394-1.143-9.394-2.553s4.206-2.553 9.394-2.553c5.19 0 9.394 1.143 9.394 2.554z" fill="#000"/><path d="M94.152 90.902c-.046.074-.07.15-.07.227 0 .912 3.386 1.65 7.562 1.65s7.562-.738 7.562-1.65l9.877-39.968 39.28-41.388.037-.04c.832-.938-.856-3.842-3.655-6.333-2.8-2.49-5.822-3.333-6.76-2.384l-.022.02-41.91 44.012-11.9 45.854z" fill="#E4BC82"/></g></svg>