<?xml version="1.0" encoding="UTF-8" standalone="no"?>
<svg width="159px" height="350px" viewBox="0 0 159 350" version="1.1" xmlns="http://www.w3.org/2000/svg" xmlns:xlink="http://www.w3.org/1999/xlink" xmlns:sketch="http://www.bohemiancoding.com/sketch/ns">
    <!-- Generator: Sketch 3.3 (11970) - http://www.bohemiancoding.com/sketch -->
    <title>gulp-logo</title>
    <desc>Created with Sketch.</desc>
    <defs></defs>
    <g id="Page-1" stroke="none" stroke-width="1" fill="none" fill-rule="evenodd" sketch:type="MSPage">
        <g id="gulp-logo" sketch:type="MSLayerGroup">
            <path d="M78.7913143,276.317746 C58.2812229,276.317746 42.4330114,273.243005 34.8119143,271.410492 C29.6003486,270.157383 25.4154686,268.860751 22.2363771,267.528756 L32.4005657,284.859197 L36.3764743,339.008549 C36.3764743,345.079145 55.6999714,350 79.5363429,350 C103.372714,350 122.696211,345.079145 122.696211,339.008549 L125.844411,284.269819 L135.46164,267.477979 C132.26892,268.828109 128.046789,270.141969 122.769806,271.410492 C115.148709,273.243005 99.3004971,276.317746 78.7913143,276.317746 L78.7913143,276.317746 L78.7913143,276.317746 Z M135.791451,100.113601 C120.73824,102.211788 100.759663,103.367876 79.5363429,103.367876 C58.3130229,103.367876 38.3344457,102.211788 23.2812343,100.113601 C15.8245886,99.0744819 9.92523429,97.8485751 5.74671429,96.4721503 C4.75001143,96.1430052 3.06097714,95.5817358 1.43554286,94.6876943 L10.7620286,180.349741 C11.1954171,178.874482 11.6778686,177.401036 12.2130171,175.933031 C13.3078457,172.924482 14.5743943,169.983031 16.0117543,167.109585 C17.4500229,164.237047 19.0154914,161.521373 20.70816,158.963472 C22.39992,156.406477 24.2016171,154.051684 26.1105257,151.9 C28.0203429,149.749223 29.9792229,147.899482 31.9908,146.348964 C34.0014686,144.800259 36.0312171,143.58886 38.0800457,142.71658 C40.1297829,141.844301 42.1595314,141.407254 44.1702,141.407254 C46.4861486,141.407254 48.7266857,142.039249 50.8909029,143.303238 C53.0542114,144.566321 55.0766914,146.612824 56.9610686,149.440933 C57.3935486,150.072927 57.6679371,150.712176 57.7815086,151.358679 C57.8968971,152.006088 57.9532286,152.615415 57.9532286,153.186658 C57.9532286,154.540415 57.6288686,155.609456 56.9801486,156.391062 C56.3314286,157.173575 55.56096,157.564378 54.67056,157.564378 C53.8546629,157.564378 53.0978229,157.135492 52.3982229,156.278627 C51.6977143,155.420855 50.9154343,154.194948 50.0495657,152.6 C49.2345771,151.15557 48.3378171,150.11101 47.3583771,149.463601 C46.3780286,148.817098 45.3159086,148.493394 44.1702,148.493394 C42.3884914,148.493394 40.4859429,149.23057 38.4625543,150.704922 C36.4382571,152.178368 34.4339486,154.126943 32.4496286,156.548834 C30.4634914,158.971632 28.5609429,161.73899 26.7410743,164.853627 C24.9212057,167.967358 23.3103086,171.156347 21.9102,174.420596 C20.5100914,177.686658 19.398,180.906477 18.5702914,184.080052 C17.7425829,187.253627 17.3291829,190.104404 17.3291829,192.631477 C17.3291829,193.474741 17.3873314,194.340674 17.5009029,195.226554 C17.6162914,196.115155 17.8316229,196.91943 18.1505314,197.642098 C18.4676229,198.364767 18.9010114,198.957772 19.4479714,199.422927 C19.99584,199.890803 20.68908,200.122927 21.5286,200.122927 C22.4707886,200.122927 23.5392686,199.807383 24.7367657,199.175389 C25.9324457,198.545207 27.1735543,197.716451 28.4582743,196.69456 C29.7439029,195.670855 31.0358914,194.512953 32.33424,193.218135 C33.6334971,191.92513 34.8418971,190.61671 35.9612571,189.291969 C37.0806171,187.969041 38.0736857,186.696891 38.9386457,185.479145 C39.8045143,184.260492 40.4532343,183.199611 40.8866229,182.296503 L44.43732,171.690415 C44.8698,170.547927 45.43584,169.735492 46.1363486,169.254016 C46.8359486,168.772539 47.5555371,168.531347 48.2942057,168.531347 C48.6494571,168.531347 49.0056171,168.592098 49.3626857,168.711788 C49.7197543,168.832383 50.0368457,169.020984 50.3175943,169.275777 C50.5974343,169.532383 50.8200343,169.862435 50.9853943,170.26956 C51.1507543,170.67487 51.2334343,171.149093 51.2334343,171.690415 C51.2334343,173.134845 51.1062343,174.487694 50.8518343,175.752591 C50.5974343,177.017487 50.2730743,178.249741 49.8778457,179.453886 C49.4835257,180.656218 49.0437771,181.867617 48.5604171,183.086269 C48.0770571,184.304922 47.6055086,185.576166 47.1484971,186.900907 C47.0467371,187.051425 46.8622971,187.523834 46.5942686,188.320855 C46.3271486,189.119689 46.0036971,190.120725 45.6211886,191.323057 C45.2395886,192.527202 44.82528,193.872798 44.38008,195.362565 C43.9339714,196.852332 43.47696,198.371114 43.00632,199.920725 C42.5347714,201.470337 42.0832114,202.990026 41.6507314,204.479793 C41.2173429,205.968653 40.8284743,207.315155 40.4859429,208.519301 C40.1425029,209.721632 39.8563029,210.729016 39.6264343,211.542358 C39.3974743,212.354793 39.2575543,212.835363 39.2066743,212.987694 C39.0794743,213.467358 38.8750457,214.002332 38.5961143,214.588083 C38.3162743,215.174741 37.9855543,215.732383 37.6030457,216.25829 C37.2214457,216.784197 36.8016857,217.22215 36.3428571,217.56671 C35.8849371,217.912176 35.4142971,218.086269 34.9300286,218.086269 C34.1159486,218.086269 33.52356,217.815155 33.1555886,217.274741 C32.7858,216.732513 32.6022686,215.739637 32.6022686,214.296114 L32.6022686,213.664119 C32.6022686,213.45285 32.61408,213.226166 32.63952,212.987694 C32.6640514,212.505311 32.85576,211.602202 33.2128286,210.277461 C33.5689886,208.954534 33.9951086,207.45842 34.4920971,205.788212 C34.9881771,204.118005 35.5233257,202.387953 36.0957257,200.59715 C36.6672171,198.807254 37.1832857,197.205959 37.6421143,195.791451 C36.2910686,197.296632 34.8291771,198.792746 33.2509886,200.282513 C31.6718914,201.771373 30.0555429,203.110622 28.4019429,204.298446 C26.7465257,205.487176 25.0792971,206.457383 23.4002571,207.209974 C21.7203086,207.961658 20.10396,208.33886 18.5512114,208.33886 C16.7695029,208.33886 15.2358343,207.94715 13.9492971,207.164637 C13.7176114,207.02228 13.4986457,206.863601 13.2805886,206.705829 L18.4703486,261.00842 C19.8213943,264.387824 45.2559429,272.690803 78.7913143,272.690803 C112.342131,272.690803 137.786674,264.379663 139.114097,261.002979 L146.568926,196.44158 C145.952006,197.006477 145.35144,197.558679 144.777223,198.093653 C142.638446,200.078497 140.620509,201.785881 138.72432,203.214896 C136.82904,204.643912 134.976463,205.751036 133.169314,206.531736 C131.361257,207.315155 129.426909,207.705959 127.36536,207.705959 C125.431011,207.705959 123.934594,207.284326 122.878834,206.441969 C121.823074,205.600518 121.294286,204.442617 121.294286,202.967358 L121.294286,202.629145 C121.294286,202.523964 121.307006,202.395207 121.333354,202.244689 C121.434206,201.343394 121.830343,200.303368 122.517223,199.130959 C123.204103,197.956736 124.030903,196.73899 124.997623,195.475907 C125.965251,194.211917 126.995571,192.932513 128.0904,191.638601 C129.185229,190.345596 130.197377,189.119689 131.126846,187.959974 C132.055406,186.803886 132.824966,185.743005 133.435526,184.779145 C134.047903,183.816192 134.353183,183.034585 134.353183,182.432513 C134.353183,182.071632 134.225074,181.78601 133.971583,181.573834 C133.716274,181.365285 133.295606,181.25829 132.711394,181.25829 C131.692886,181.25829 130.642577,181.52215 129.562286,182.048057 C128.479269,182.573964 127.408971,183.283031 126.353211,184.169819 C125.297451,185.057513 124.266223,186.073964 123.260434,187.216451 C122.256463,188.359845 121.314274,189.548575 120.435686,190.780829 C119.557097,192.015803 118.756646,193.257124 118.030697,194.505699 C117.304749,195.754275 116.687829,196.904922 116.17812,197.956736 C116.02548,198.288601 115.80924,198.75557 115.528491,199.355829 C115.248651,199.957902 114.943371,200.63614 114.612651,201.387824 C114.281023,202.140415 113.931223,202.915674 113.562343,203.710881 C113.193463,204.509715 112.856383,205.262306 112.551103,205.968653 C112.245823,206.675907 111.972343,207.306088 111.731571,207.863731 C111.488074,208.41956 111.316354,208.804016 111.214594,209.015285 C111.087394,209.285492 110.877514,209.795984 110.584954,210.548575 C110.292394,211.301166 109.954406,212.181606 109.573714,213.18899 C109.192114,214.196373 108.790526,215.257254 108.369857,216.371632 C107.951914,217.48329 107.555777,218.537824 107.186897,219.530699 C106.817109,220.522668 106.492749,221.395855 106.213817,222.148446 C105.933977,222.899223 105.75408,223.411528 105.67776,223.682642 C105.424269,224.465155 105.12444,225.200518 104.781909,225.895078 C104.43756,226.58601 104.044149,227.195337 103.59804,227.723057 C103.15284,228.248964 102.64404,228.669689 102.070731,228.985233 C101.497423,229.302591 100.855063,229.459456 100.143651,229.459456 C99.2259943,229.459456 98.4700629,229.240026 97.8704057,228.804793 C97.2734743,228.368653 96.9736457,227.532642 96.9736457,226.300389 C96.9736457,225.698316 97.0499657,225.081736 97.2026057,224.450648 C97.3552457,223.818653 97.5469543,223.193005 97.7759143,222.577332 C98.0048743,221.958938 98.2411029,221.358679 98.4827829,220.772021 C98.7235543,220.184456 98.9470629,219.621373 99.1496743,219.079145 C100.525251,216.070596 101.92536,213.054793 103.35,210.029922 C104.77464,207.006865 106.142949,204.013731 107.454926,201.049611 C107.727497,200.431218 107.978263,199.825518 108.244474,199.210751 C108.16452,199.288731 108.086383,199.370337 108.008246,199.446503 C106.352829,201.042358 104.705589,202.447798 103.0638,203.666451 C101.421103,204.885104 99.7920343,205.855311 98.1775029,206.577979 C96.5602457,207.298834 94.9884171,207.660622 93.4602,207.660622 C92.41716,207.660622 91.54584,207.495596 90.84624,207.164637 C90.1457314,206.832772 89.58696,206.381218 89.1662914,205.810881 C88.7456229,205.239637 88.4457943,204.562306 88.2677143,203.779793 C88.2077486,203.512306 88.1704971,203.233031 88.1314286,202.954663 C87.6844114,203.301943 87.23376,203.640155 86.7794743,203.96114 C85.2012857,205.072798 83.6485371,205.968653 82.1212286,206.645078 C80.5948286,207.322409 79.2192514,207.660622 77.99904,207.660622 C76.7761029,207.660622 75.7839429,207.254404 75.0189257,206.441969 C74.2557257,205.63044 73.8750343,204.245855 73.8750343,202.290933 C73.8750343,200.90544 74.0785543,199.295984 74.4846857,197.461658 C73.8232457,198.634974 72.9964457,199.823705 72.0042857,201.026036 C71.0103086,202.230181 69.8782286,203.328238 68.6062286,204.322021 C67.3315029,205.31399 65.9068629,206.119171 64.3295829,206.735751 C62.7504857,207.352332 61.0323771,207.660622 59.1752571,207.660622 C58.3348286,207.660622 57.5271086,207.55544 56.75028,207.345078 C55.9734514,207.133808 55.2929314,206.772927 54.7078114,206.261528 C54.1217829,205.751036 53.6520514,205.065544 53.2949829,204.208679 C52.9388229,203.351813 52.7607429,202.274611 52.7607429,200.981606 C52.7607429,200.951684 52.8116229,200.492876 52.9133829,199.604275 C53.0151429,198.71658 53.3395029,197.317487 53.8873714,195.406995 C54.4343314,193.497409 55.28112,191.022021 56.4250114,187.982642 C57.5716286,184.944171 59.1879771,181.25829 61.2749657,176.926813 C61.8092057,175.782513 62.4270343,174.962824 63.1257257,174.466839 C63.8271429,173.969948 64.5830743,173.721503 65.3971543,173.721503 C65.7542229,173.721503 66.1231029,173.775 66.5047029,173.879275 C66.88812,173.985363 67.2433714,174.150389 67.575,174.376166 C67.9048114,174.601943 68.17284,174.888472 68.3772686,175.233938 C68.5789714,175.579404 68.6825486,175.977461 68.6825486,176.429016 C68.6825486,176.730052 68.64348,177.017487 68.56716,177.285881 C68.4390514,177.8 68.1655714,178.467358 67.7476286,179.294301 C67.32696,180.123057 66.8363314,181.070596 66.2757429,182.138731 C65.7169714,183.206865 65.1245829,184.357513 64.5013029,185.592487 C63.8771143,186.824741 63.2983543,188.103238 62.7641143,189.427979 C62.2298743,190.75272 61.7710457,192.098316 61.3894457,193.467487 C61.0078457,194.836658 60.7906971,196.168653 60.7407257,197.461658 C60.7407257,198.002979 60.8670171,198.498964 61.1223257,198.950518 C61.3767257,199.402073 61.7973943,199.626943 62.3825143,199.626943 C64.0361143,199.626943 65.6143029,199.084715 67.11708,198.002979 C68.61804,196.91943 70.00452,195.572927 71.2783371,193.963472 C72.5512457,192.354016 73.7024057,190.623057 74.7336343,188.772409 C75.7648629,186.921762 76.6234629,185.230699 77.3103429,183.695596 C77.7946114,182.673705 78.2207314,181.573834 78.5896114,180.401425 C78.9584914,179.227202 79.36008,178.145466 79.79256,177.151684 C80.2259486,176.157902 80.72112,175.330959 81.2817086,174.669041 C81.84048,174.008031 82.5418971,173.676166 83.3805086,173.676166 C84.2981657,173.676166 85.0222971,174.022539 85.5583543,174.714378 C86.0925943,175.407124 86.3588057,176.234067 86.3588057,177.196114 C86.3588057,177.737435 86.1879943,178.483679 85.8436457,179.431218 C85.4992971,180.378756 85.0668171,181.462306 84.5452971,182.680959 C84.0228686,183.899611 83.4568286,185.200777 82.8471771,186.583549 C82.2366171,187.969041 81.66876,189.374482 81.1490571,190.804404 C80.6248114,192.23342 80.1941486,193.632513 79.8498,195.001684 C79.5054514,196.369948 79.33464,197.642098 79.33464,198.814508 C79.33464,199.898057 79.89432,200.440285 81.01368,200.440285 C81.8032286,200.440285 82.7826686,200.169171 83.9538171,199.626943 C85.1249657,199.084715 86.3533543,198.325777 87.6380743,197.347409 C87.9588,197.103497 88.2822514,196.848705 88.6029771,196.581218 C88.9618629,195.104145 89.3825314,193.738601 89.8722514,192.49728 C90.7626514,190.148834 91.66668,187.818523 92.5834286,185.501813 C93.4992686,183.185104 94.3387886,181.063342 95.1038057,179.137435 L106.671737,150.027591 C107.129657,148.854275 107.747486,148.026425 108.522497,147.544948 C109.300234,147.064378 110.082514,146.823187 110.872063,146.823187 C111.659794,146.823187 112.378474,147.078886 113.028103,147.590285 C113.677731,148.102591 114.003,148.929534 114.003,150.072927 C114.003,150.614249 113.893971,151.186399 113.677731,151.787565 C113.461491,152.389637 113.188011,153.03614 112.856383,153.727979 C112.221291,155.143394 111.463543,156.872539 110.584954,158.918135 C109.706366,160.964637 108.764177,163.19158 107.759297,165.598057 C106.753509,168.00544 105.72228,170.509845 104.66652,173.112176 C103.61076,175.715415 102.579531,178.249741 101.573743,180.716969 C100.569771,183.185104 99.6266743,185.522668 98.7480857,187.735104 C97.8704057,189.946632 97.1144743,191.865285 96.4766571,193.489249 C96.1968171,194.181088 95.9233371,194.987176 95.6571257,195.904793 C95.3890971,196.821503 95.2564457,197.642098 95.2564457,198.364767 C95.2564457,198.814508 95.3327657,199.175389 95.4854057,199.446503 C95.6380457,199.717617 95.9306057,199.853627 96.3630857,199.853627 C96.8973257,199.853627 97.5651257,199.665933 98.3673943,199.288731 C99.1687543,198.913342 100.033714,198.415544 100.963183,197.798964 C101.89356,197.18329 102.86028,196.476036 103.864251,195.678109 C104.870949,194.881088 105.869469,194.054145 106.861629,193.196373 C107.855606,192.337694 108.803246,191.480829 109.706366,190.623057 C110.609486,189.766192 111.419023,188.976425 112.132251,188.253756 C112.299429,188.08057 112.499314,187.958161 112.719189,187.86658 C113.148943,186.585363 113.541446,185.33044 113.887611,184.10272 C114.091131,183.560492 114.37188,182.794301 114.72804,181.800518 C115.083291,180.806736 115.49124,179.829275 115.94916,178.866321 C116.40708,177.904275 116.924057,177.068264 117.49464,176.361917 C118.067949,175.65557 118.685777,175.301036 119.347217,175.301036 C120.365726,175.301036 121.104394,175.534974 121.562314,176.00013 C122.020234,176.468005 122.249194,177.151684 122.249194,178.054793 C122.249194,178.235233 122.223754,178.520855 122.172874,178.911658 C122.121086,179.303368 122.059303,179.717746 121.982983,180.153886 C121.906663,180.589119 121.823074,181.003497 121.734034,181.395207 C121.644086,181.78601 121.562314,182.071632 121.485994,182.252073 C122.426366,181.228368 123.444874,180.213731 124.539703,179.206347 C125.634531,178.198057 126.766611,177.285881 127.93776,176.475259 C129.109817,175.661917 130.305497,175.001813 131.528434,174.487694 C132.748646,173.978109 133.971583,173.721503 135.192703,173.721503 C136.032223,173.721503 136.866291,173.842098 137.693091,174.08329 C138.519891,174.323575 139.259469,174.677202 139.90728,175.143264 C140.556909,175.61114 141.085697,176.196891 141.491829,176.904145 C141.898869,177.610492 142.102389,178.430181 142.102389,179.363212 C142.102389,180.598187 141.791657,181.91386 141.167469,183.312953 C140.544189,184.712047 139.761909,186.118394 138.81972,187.531088 C137.877531,188.946503 136.859023,190.322021 135.766011,191.661269 C134.671183,193.000518 133.647223,194.218264 132.692314,195.316321 C131.737406,196.416192 130.935137,197.347409 130.285509,198.114508 C129.638606,198.88342 129.2988,199.402073 129.274269,199.673187 C129.274269,200.034067 129.389657,200.326943 129.618617,200.553627 C129.847577,200.778497 130.229177,200.891839 130.763417,200.891839 C131.195897,200.891839 131.833714,200.650648 132.672326,200.169171 C133.511846,199.687694 134.690263,198.853497 136.203943,197.664767 C137.717623,196.476036 139.641069,194.881088 141.969737,192.879922 C143.567006,191.508938 145.436846,189.874093 147.543823,188.014378 L157.641686,94.6849741 C156.015343,95.580829 154.323583,96.1430052 153.325971,96.4721503 C149.14836,97.8485751 143.249006,99.0744819 135.791451,100.113601 L135.791451,100.113601 L135.791451,100.113601 Z M79.4763771,77.9702073 C35.820881,77.9702073 0.430662857,82.841537 0.430662857,88.8510363 C0.430662857,94.8605354 35.820881,99.7318653 79.4763771,99.7318653 C123.131873,99.7318653 158.522091,94.8605354 158.522091,88.8510363 C158.522091,82.841537 123.131873,77.9702073 79.4763771,77.9702073 L79.4763771,77.9702073 L79.4763771,77.9702073 Z M111.038331,92.0309585 C111.038331,93.4409326 106.832554,94.5843264 101.643703,94.5843264 C96.45576,94.5843264 92.2499829,93.4409326 92.2499829,92.0309585 C92.2499829,90.6200777 96.45576,89.4766839 101.643703,89.4766839 C106.832554,89.4766839 111.038331,90.6200777 111.038331,92.0309585 L111.038331,92.0309585 L111.038331,92.0309585 Z" id="cup" fill="#000000" sketch:type="MSShapeGroup"></path>
            <path d="M94.1523088,90.9020668 C94.10573,90.9761789 94.0816629,91.0518554 94.0816629,91.1287565 C94.0816629,92.0418394 97.4679086,92.780829 101.643703,92.780829 C105.820406,92.780829 109.205743,92.0418394 109.205743,91.1287565 L119.082823,51.161658 L158.363133,9.77392134 C158.375959,9.76129423 158.388364,9.74822679 158.400343,9.73471503 C159.231686,8.79624352 157.544469,5.89196891 154.74516,3.4011658 C151.945851,0.910362694 148.923034,0.0670984456 147.983571,1.01554404 C147.976549,1.02263728 147.9697,1.02983072 147.963022,1.03712355 L106.053,45.0484456 L94.1523088,90.9020668 L94.1523088,90.9020668 Z" id="straw" fill="#E4BC82" sketch:type="MSShapeGroup"></path>
        </g>
    </g>
</svg>