<?xml version="1.0" encoding="UTF-8" standalone="no"?>
<svg width="27px" height="35px" viewBox="0 0 27 35" version="1.1" xmlns="http://www.w3.org/2000/svg" xmlns:xlink="http://www.w3.org/1999/xlink" xmlns:sketch="http://www.bohemiancoding.com/sketch/ns">
    <!-- Generator: Sketch 3.3.1 (12002) - http://www.bohemiancoding.com/sketch -->
    <title>stackoverflow</title>
    <desc>Created with Sketch.</desc>
    <defs></defs>
    <g id="Page-1" stroke="none" stroke-width="1" fill="none" fill-rule="evenodd" sketch:type="MSPage">
        <g id="stackoverflow" sketch:type="MSLayerGroup" transform="translate(-1.000000, -0.250000)" fill="#000000">
            <g id="Page-1" sketch:type="MSShapeGroup">
                <path d="M19.9672621,22.3943791 L6.95063225,19.2373427 L7.58204151,16.6340168 L20.5986713,19.7910532 L19.967264,22.3943791 L19.9672621,22.3943791 L19.9672621,22.3943791 Z M20.8395738,19.2801257 L8.91260773,13.1852814 L10.1313119,10.7998803 L22.0589495,16.8947246 L20.8395876,19.2801257 L20.8395738,19.2801257 L20.8395738,19.2801257 Z M22.6773086,16.053957 L12.5899143,7.24122458 L14.3524588,5.22388398 L24.4398531,14.0366164 L22.6773066,16.053957 L22.6773086,16.053957 L22.6773086,16.053957 Z M25.4516877,13.2175563 L17.9300904,2.13530833 L20.1469271,0.630860482 L27.6685244,11.7137603 L25.4516877,13.2175524 L25.4516877,13.2175563 L25.4516877,13.2175563 Z M19.7585417,25.6509068 L6.38439898,24.9207371 L6.53056447,22.2456518 L19.9047072,22.9758215 L19.7585421,25.6509068 L19.7585417,25.6509068 L19.7585417,25.6509068 Z M22.5317357,31.9518247 L22.5317357,20.8537751 L25.2081444,20.8537751 L25.2101185,34.6308605 L0.999977125,34.6308605 L0.999977125,20.8419238 L3.67901286,20.8419238 L3.67901286,31.9518247 L22.5317346,31.9518247 L22.5317357,31.9518247 L22.5317357,31.9518247 Z M6.34752182,26.604933 L19.8322763,26.604933 L19.8322763,29.2833169 L6.34752182,29.2833169 L6.34752182,26.604933 L6.34752182,26.604933 Z" id="stackoverflow"></path>
            </g>
        </g>
    </g>
</svg>