<?xml version="1.0" encoding="UTF-8" standalone="no"?>
<svg width="35px" height="28px" viewBox="0 0 35 28" version="1.1" xmlns="http://www.w3.org/2000/svg" xmlns:xlink="http://www.w3.org/1999/xlink" xmlns:sketch="http://www.bohemiancoding.com/sketch/ns">
    <!-- Generator: Sketch 3.3.1 (12002) - http://www.bohemiancoding.com/sketch -->
    <title>twitter</title>
    <desc>Created with Sketch.</desc>
    <defs></defs>
    <g id="Page-1" stroke="none" stroke-width="1" fill="none" fill-rule="evenodd" sketch:type="MSPage">
        <g id="twitter" sketch:type="MSLayerGroup" transform="translate(0.000000, 0.250000)" fill="#000000">
            <g id="Page-1" sketch:type="MSShapeGroup">
                <path d="M11.0889562,27.6308605 C7.14992679,27.6308605 3.4832429,26.4763452 0.396519725,24.4972893 C0.94206509,24.5615441 1.49714423,24.594708 2.06010433,24.594708 C5.32839946,24.594708 8.33593986,23.4795739 10.723325,21.6087199 C7.67101342,21.5523417 5.09500488,19.5355662 4.20746626,16.764318 C4.63320647,16.8455698 5.07014072,16.8895119 5.51951016,16.8895119 C6.1558415,16.8895119 6.77185917,16.8041149 7.35761526,16.6445141 C4.16642603,16.0040377 1.76205273,13.1846979 1.76205273,9.80488526 C1.76205273,9.7754527 1.76205273,9.7464339 1.76246725,9.71741497 C2.70307587,10.2397465 3.77841337,10.5535588 4.92215499,10.5896244 C3.05047152,9.33892948 1.81885404,7.20359358 1.81885404,4.78388616 C1.81885404,3.50542064 2.16292916,2.3069587 2.7631936,1.27681148 C6.20352193,5.49690429 11.3435005,8.27396024 17.1409562,8.56497282 C17.0219811,8.05466485 16.960215,7.52197005 16.960215,6.97518601 C16.960215,3.12321168 20.0834142,0 23.9358114,0 C25.9422187,0 27.7550406,0.847334116 29.0276983,2.20290305 C30.6162414,1.88991778 32.1094469,1.30955288 33.457146,0.510304239 C32.9360594,2.13906683 31.8300499,3.50624144 30.3899108,4.36933003 C31.8010357,4.20060865 33.1454144,3.82585658 34.3965197,3.27077744 C33.4612973,4.66987638 32.278172,5.89818576 30.9155616,6.88190778 C30.9292418,7.18079759 30.935874,7.48175808 30.935874,7.78437883 C30.935874,17.0018541 23.9196477,27.630815 11.0889404,27.630815 L11.0889562,27.6308605 L11.0889562,27.6308605 Z" id="twitter"></path>
            </g>
        </g>
    </g>
</svg>